<mxfile host="app.diagrams.net" modified="2024-01-21T14:45:06.901Z" agent="Mozilla/5.0 (Windows NT 10.0; Win64; x64) AppleWebKit/537.36 (KHTML, like Gecko) Chrome/120.0.0.0 Safari/537.36" etag="Jtrhb03yMxkh2lVvLniC" version="21.7.5" type="github">
  <diagram name="第 1 页" id="YNtreHXLW_XTTCcb58yX">
    <mxGraphModel dx="1615" dy="857" grid="1" gridSize="10" guides="1" tooltips="1" connect="1" arrows="1" fold="1" page="1" pageScale="1" pageWidth="2339" pageHeight="3300" math="1" shadow="0">
      <root>
        <mxCell id="0" />
        <mxCell id="1" parent="0" />
        <mxCell id="LSHb6EYZrm_vwkN75SZw-78" style="edgeStyle=orthogonalEdgeStyle;rounded=0;orthogonalLoop=1;jettySize=auto;html=1;exitX=0.5;exitY=1;exitDx=0;exitDy=0;entryX=0.5;entryY=0;entryDx=0;entryDy=0;strokeWidth=3;" edge="1" parent="1" source="LSHb6EYZrm_vwkN75SZw-7" target="LSHb6EYZrm_vwkN75SZw-77">
          <mxGeometry relative="1" as="geometry" />
        </mxCell>
        <mxCell id="LSHb6EYZrm_vwkN75SZw-7" value="" style="rounded=0;whiteSpace=wrap;html=1;dashed=1;dashPattern=8 8;" vertex="1" parent="1">
          <mxGeometry x="531" y="91.5" width="680" height="357.5" as="geometry" />
        </mxCell>
        <mxCell id="LSHb6EYZrm_vwkN75SZw-30" style="edgeStyle=orthogonalEdgeStyle;rounded=0;orthogonalLoop=1;jettySize=auto;html=1;exitX=1;exitY=0.5;exitDx=0;exitDy=0;strokeWidth=2;" edge="1" parent="1" source="LSHb6EYZrm_vwkN75SZw-28" target="LSHb6EYZrm_vwkN75SZw-19">
          <mxGeometry relative="1" as="geometry" />
        </mxCell>
        <mxCell id="LSHb6EYZrm_vwkN75SZw-28" value="" style="rounded=1;whiteSpace=wrap;html=1;dashed=1;dashPattern=8 8;" vertex="1" parent="1">
          <mxGeometry x="547" y="189" width="290" height="150" as="geometry" />
        </mxCell>
        <mxCell id="LSHb6EYZrm_vwkN75SZw-8" style="edgeStyle=orthogonalEdgeStyle;rounded=0;orthogonalLoop=1;jettySize=auto;html=1;exitX=1;exitY=0.5;exitDx=0;exitDy=0;strokeWidth=3;" edge="1" parent="1" source="LSHb6EYZrm_vwkN75SZw-4" target="LSHb6EYZrm_vwkN75SZw-6">
          <mxGeometry relative="1" as="geometry" />
        </mxCell>
        <mxCell id="LSHb6EYZrm_vwkN75SZw-4" value="" style="rounded=1;whiteSpace=wrap;html=1;dashed=1;dashPattern=8 8;strokeColor=#000000;strokeWidth=1;" vertex="1" parent="1">
          <mxGeometry x="190" y="120" width="90" height="300" as="geometry" />
        </mxCell>
        <mxCell id="LSHb6EYZrm_vwkN75SZw-2" value="&lt;b&gt;&lt;font style=&quot;font-size: 14px;&quot;&gt;$$\mathcal{B}_t$$&lt;/font&gt;&lt;/b&gt;" style="rounded=1;whiteSpace=wrap;html=1;fillColor=#dae8fc;strokeColor=#6c8ebf;fillStyle=dots;" vertex="1" parent="1">
          <mxGeometry x="200" y="160" width="70" height="70" as="geometry" />
        </mxCell>
        <mxCell id="LSHb6EYZrm_vwkN75SZw-1" value="&lt;b&gt;&lt;font style=&quot;font-size: 14px;&quot;&gt;$$A_t$$&lt;/font&gt;&lt;/b&gt;" style="rounded=1;whiteSpace=wrap;html=1;fillColor=#dae8fc;strokeColor=#6c8ebf;fillStyle=dots;" vertex="1" parent="1">
          <mxGeometry x="200" y="250" width="70" height="70" as="geometry" />
        </mxCell>
        <mxCell id="LSHb6EYZrm_vwkN75SZw-3" value="&lt;b&gt;&lt;font style=&quot;font-size: 14px;&quot;&gt;$$O_t$$&lt;/font&gt;&lt;/b&gt;" style="rounded=1;whiteSpace=wrap;html=1;fillColor=#dae8fc;strokeColor=#6c8ebf;fillStyle=dots;" vertex="1" parent="1">
          <mxGeometry x="200" y="340" width="70" height="70" as="geometry" />
        </mxCell>
        <mxCell id="LSHb6EYZrm_vwkN75SZw-5" value="&lt;b&gt;&lt;font style=&quot;font-size: 13px;&quot;&gt;Observation&lt;/font&gt;&lt;/b&gt;" style="text;html=1;strokeColor=none;fillColor=none;align=center;verticalAlign=middle;whiteSpace=wrap;rounded=0;" vertex="1" parent="1">
          <mxGeometry x="205" y="130" width="60" height="30" as="geometry" />
        </mxCell>
        <mxCell id="LSHb6EYZrm_vwkN75SZw-72" style="edgeStyle=orthogonalEdgeStyle;rounded=0;orthogonalLoop=1;jettySize=auto;html=1;exitX=1;exitY=0.5;exitDx=0;exitDy=0;entryX=0;entryY=0.5;entryDx=0;entryDy=0;strokeWidth=3;" edge="1" parent="1" source="LSHb6EYZrm_vwkN75SZw-6" target="LSHb6EYZrm_vwkN75SZw-7">
          <mxGeometry relative="1" as="geometry">
            <Array as="points">
              <mxPoint x="500" y="270" />
              <mxPoint x="500" y="270" />
            </Array>
          </mxGeometry>
        </mxCell>
        <mxCell id="LSHb6EYZrm_vwkN75SZw-6" value="&lt;b&gt;&lt;font style=&quot;font-size: 13px;&quot;&gt;Belief&amp;nbsp; Map Update&lt;/font&gt;&lt;/b&gt;" style="ellipse;whiteSpace=wrap;html=1;fillColor=#f5f5f5;fontColor=#333333;strokeColor=#666666;" vertex="1" parent="1">
          <mxGeometry x="330" y="232.5" width="150" height="75" as="geometry" />
        </mxCell>
        <mxCell id="LSHb6EYZrm_vwkN75SZw-15" value="" style="group" vertex="1" connectable="0" parent="1">
          <mxGeometry x="557" y="229" width="100" height="100" as="geometry" />
        </mxCell>
        <mxCell id="LSHb6EYZrm_vwkN75SZw-10" value="" style="whiteSpace=wrap;html=1;aspect=fixed;fillColor=#d5e8d4;strokeColor=#82b366;" vertex="1" parent="LSHb6EYZrm_vwkN75SZw-15">
          <mxGeometry x="20" width="80" height="80" as="geometry" />
        </mxCell>
        <mxCell id="LSHb6EYZrm_vwkN75SZw-13" value="" style="whiteSpace=wrap;html=1;aspect=fixed;fillColor=#d5e8d4;strokeColor=#82b366;" vertex="1" parent="LSHb6EYZrm_vwkN75SZw-15">
          <mxGeometry x="10" y="10" width="80" height="80" as="geometry" />
        </mxCell>
        <mxCell id="LSHb6EYZrm_vwkN75SZw-14" value="&lt;b&gt;Conv Layer&lt;/b&gt;" style="whiteSpace=wrap;html=1;aspect=fixed;fillColor=#d5e8d4;strokeColor=#82b366;" vertex="1" parent="LSHb6EYZrm_vwkN75SZw-15">
          <mxGeometry y="20" width="80" height="80" as="geometry" />
        </mxCell>
        <mxCell id="LSHb6EYZrm_vwkN75SZw-16" value="&lt;font style=&quot;font-size: 14px;&quot;&gt;&lt;b&gt;LSTM&lt;/b&gt;&lt;/font&gt;" style="shape=cube;whiteSpace=wrap;html=1;boundedLbl=1;backgroundOutline=1;darkOpacity=0.05;darkOpacity2=0.1;flipH=1;fillColor=#d5e8d4;strokeColor=#82b366;" vertex="1" parent="1">
          <mxGeometry x="707" y="229" width="120" height="80" as="geometry" />
        </mxCell>
        <mxCell id="LSHb6EYZrm_vwkN75SZw-18" style="edgeStyle=orthogonalEdgeStyle;rounded=0;orthogonalLoop=1;jettySize=auto;html=1;exitX=1;exitY=0.5;exitDx=0;exitDy=0;entryX=0;entryY=0;entryDx=120;entryDy=50;entryPerimeter=0;strokeWidth=2;" edge="1" parent="1" source="LSHb6EYZrm_vwkN75SZw-13" target="LSHb6EYZrm_vwkN75SZw-16">
          <mxGeometry relative="1" as="geometry" />
        </mxCell>
        <mxCell id="LSHb6EYZrm_vwkN75SZw-25" value="" style="group" vertex="1" connectable="0" parent="1">
          <mxGeometry x="877" y="204" width="60" height="120" as="geometry" />
        </mxCell>
        <mxCell id="LSHb6EYZrm_vwkN75SZw-19" value="" style="rounded=1;whiteSpace=wrap;html=1;fillColor=#e1d5e7;strokeColor=#9673a6;" vertex="1" parent="LSHb6EYZrm_vwkN75SZw-25">
          <mxGeometry x="5" width="50" height="120" as="geometry" />
        </mxCell>
        <mxCell id="LSHb6EYZrm_vwkN75SZw-22" value="" style="endArrow=none;html=1;rounded=0;entryX=1;entryY=0.25;entryDx=0;entryDy=0;exitX=0;exitY=0.25;exitDx=0;exitDy=0;" edge="1" parent="LSHb6EYZrm_vwkN75SZw-25" source="LSHb6EYZrm_vwkN75SZw-19" target="LSHb6EYZrm_vwkN75SZw-19">
          <mxGeometry width="50" height="50" relative="1" as="geometry">
            <mxPoint x="-35" y="60" as="sourcePoint" />
            <mxPoint x="15" y="10" as="targetPoint" />
          </mxGeometry>
        </mxCell>
        <mxCell id="LSHb6EYZrm_vwkN75SZw-23" value="$$O^{i}_t$$" style="text;html=1;strokeColor=none;fillColor=none;align=center;verticalAlign=middle;whiteSpace=wrap;rounded=0;" vertex="1" parent="LSHb6EYZrm_vwkN75SZw-25">
          <mxGeometry width="60" height="30" as="geometry" />
        </mxCell>
        <mxCell id="LSHb6EYZrm_vwkN75SZw-24" value="$$O_t^{global}$$" style="text;html=1;strokeColor=none;fillColor=none;align=center;verticalAlign=middle;whiteSpace=wrap;rounded=0;" vertex="1" parent="LSHb6EYZrm_vwkN75SZw-25">
          <mxGeometry y="60" width="60" height="30" as="geometry" />
        </mxCell>
        <mxCell id="LSHb6EYZrm_vwkN75SZw-29" value="&lt;b&gt;&lt;font style=&quot;font-size: 13px;&quot;&gt;Shared Ecoder&lt;/font&gt;&lt;/b&gt;" style="text;html=1;strokeColor=none;fillColor=none;align=center;verticalAlign=middle;whiteSpace=wrap;rounded=0;" vertex="1" parent="1">
          <mxGeometry x="557" y="199" width="110" height="30" as="geometry" />
        </mxCell>
        <mxCell id="LSHb6EYZrm_vwkN75SZw-47" value="" style="rounded=1;whiteSpace=wrap;html=1;dashed=1;dashPattern=8 8;" vertex="1" parent="1">
          <mxGeometry x="987" y="111.5" width="210" height="140" as="geometry" />
        </mxCell>
        <mxCell id="LSHb6EYZrm_vwkN75SZw-48" value="&lt;b&gt;&lt;font style=&quot;font-size: 13px;&quot;&gt;FC&lt;/font&gt;&lt;/b&gt;" style="rounded=0;whiteSpace=wrap;html=1;fillColor=#d5e8d4;strokeColor=#82b366;" vertex="1" parent="1">
          <mxGeometry x="1007" y="151.5" width="30" height="85" as="geometry" />
        </mxCell>
        <mxCell id="LSHb6EYZrm_vwkN75SZw-55" style="edgeStyle=orthogonalEdgeStyle;rounded=0;orthogonalLoop=1;jettySize=auto;html=1;exitX=1;exitY=0.5;exitDx=0;exitDy=0;strokeWidth=2;" edge="1" parent="1" source="LSHb6EYZrm_vwkN75SZw-49" target="LSHb6EYZrm_vwkN75SZw-54">
          <mxGeometry relative="1" as="geometry" />
        </mxCell>
        <mxCell id="LSHb6EYZrm_vwkN75SZw-49" value="&lt;b&gt;&lt;font style=&quot;font-size: 13px;&quot;&gt;FC&lt;/font&gt;&lt;/b&gt;" style="rounded=0;whiteSpace=wrap;html=1;fillColor=#d5e8d4;strokeColor=#82b366;" vertex="1" parent="1">
          <mxGeometry x="1077" y="151.5" width="30" height="85" as="geometry" />
        </mxCell>
        <mxCell id="LSHb6EYZrm_vwkN75SZw-51" value="&lt;font size=&quot;1&quot; style=&quot;&quot;&gt;&lt;b style=&quot;font-size: 17px;&quot;&gt;...&lt;/b&gt;&lt;/font&gt;" style="text;html=1;strokeColor=none;fillColor=none;align=center;verticalAlign=middle;whiteSpace=wrap;rounded=0;" vertex="1" parent="1">
          <mxGeometry x="1027" y="171.5" width="60" height="30" as="geometry" />
        </mxCell>
        <mxCell id="LSHb6EYZrm_vwkN75SZw-52" value="&lt;font style=&quot;font-size: 14px;&quot;&gt;&lt;b&gt;Actor&lt;/b&gt;&lt;/font&gt;" style="text;html=1;strokeColor=none;fillColor=none;align=center;verticalAlign=middle;whiteSpace=wrap;rounded=0;" vertex="1" parent="1">
          <mxGeometry x="992" y="111.5" width="60" height="30" as="geometry" />
        </mxCell>
        <mxCell id="LSHb6EYZrm_vwkN75SZw-54" value="&lt;font style=&quot;font-size: 16px;&quot;&gt;$$\pi_i$$&lt;/font&gt;" style="text;html=1;strokeColor=none;fillColor=none;align=center;verticalAlign=middle;whiteSpace=wrap;rounded=0;" vertex="1" parent="1">
          <mxGeometry x="1137" y="179" width="60" height="30" as="geometry" />
        </mxCell>
        <mxCell id="LSHb6EYZrm_vwkN75SZw-63" value="" style="rounded=1;whiteSpace=wrap;html=1;dashed=1;dashPattern=8 8;" vertex="1" parent="1">
          <mxGeometry x="987" y="286.5" width="210" height="140" as="geometry" />
        </mxCell>
        <mxCell id="LSHb6EYZrm_vwkN75SZw-64" value="&lt;b&gt;&lt;font style=&quot;font-size: 13px;&quot;&gt;FC&lt;/font&gt;&lt;/b&gt;" style="rounded=0;whiteSpace=wrap;html=1;fillColor=#d5e8d4;strokeColor=#82b366;" vertex="1" parent="1">
          <mxGeometry x="1007" y="326.5" width="30" height="85" as="geometry" />
        </mxCell>
        <mxCell id="LSHb6EYZrm_vwkN75SZw-65" style="edgeStyle=orthogonalEdgeStyle;rounded=0;orthogonalLoop=1;jettySize=auto;html=1;exitX=1;exitY=0.5;exitDx=0;exitDy=0;strokeWidth=2;" edge="1" parent="1" source="LSHb6EYZrm_vwkN75SZw-66">
          <mxGeometry relative="1" as="geometry">
            <mxPoint x="1137" y="369" as="targetPoint" />
          </mxGeometry>
        </mxCell>
        <mxCell id="LSHb6EYZrm_vwkN75SZw-66" value="&lt;b&gt;&lt;font style=&quot;font-size: 13px;&quot;&gt;FC&lt;/font&gt;&lt;/b&gt;" style="rounded=0;whiteSpace=wrap;html=1;fillColor=#d5e8d4;strokeColor=#82b366;" vertex="1" parent="1">
          <mxGeometry x="1077" y="326.5" width="30" height="85" as="geometry" />
        </mxCell>
        <mxCell id="LSHb6EYZrm_vwkN75SZw-67" value="&lt;font size=&quot;1&quot; style=&quot;&quot;&gt;&lt;b style=&quot;font-size: 17px;&quot;&gt;...&lt;/b&gt;&lt;/font&gt;" style="text;html=1;strokeColor=none;fillColor=none;align=center;verticalAlign=middle;whiteSpace=wrap;rounded=0;" vertex="1" parent="1">
          <mxGeometry x="1027" y="346.5" width="60" height="30" as="geometry" />
        </mxCell>
        <mxCell id="LSHb6EYZrm_vwkN75SZw-68" value="&lt;font style=&quot;font-size: 14px;&quot;&gt;&lt;b&gt;Critic&lt;/b&gt;&lt;/font&gt;" style="text;html=1;strokeColor=none;fillColor=none;align=center;verticalAlign=middle;whiteSpace=wrap;rounded=0;" vertex="1" parent="1">
          <mxGeometry x="992" y="286.5" width="60" height="30" as="geometry" />
        </mxCell>
        <mxCell id="LSHb6EYZrm_vwkN75SZw-53" value="$$A_t$$" style="text;html=1;strokeColor=none;fillColor=none;align=center;verticalAlign=middle;whiteSpace=wrap;rounded=0;" vertex="1" parent="1">
          <mxGeometry x="1137" y="354" width="60" height="30" as="geometry" />
        </mxCell>
        <mxCell id="LSHb6EYZrm_vwkN75SZw-84" style="edgeStyle=orthogonalEdgeStyle;rounded=0;orthogonalLoop=1;jettySize=auto;html=1;exitX=0;exitY=0.5;exitDx=0;exitDy=0;strokeWidth=3;" edge="1" parent="1" source="LSHb6EYZrm_vwkN75SZw-70" target="LSHb6EYZrm_vwkN75SZw-81">
          <mxGeometry relative="1" as="geometry" />
        </mxCell>
        <mxCell id="LSHb6EYZrm_vwkN75SZw-70" value="&lt;font size=&quot;1&quot; style=&quot;&quot;&gt;&lt;b style=&quot;font-size: 18px;&quot;&gt;Env&lt;/b&gt;&lt;/font&gt;" style="rounded=1;whiteSpace=wrap;html=1;fillColor=#f5f5f5;fontColor=#333333;strokeColor=#666666;" vertex="1" parent="1">
          <mxGeometry x="651" y="570" width="440" height="40" as="geometry" />
        </mxCell>
        <mxCell id="LSHb6EYZrm_vwkN75SZw-75" value="" style="endArrow=classic;html=1;rounded=0;exitX=1;exitY=0.5;exitDx=0;exitDy=0;entryX=0;entryY=0.5;entryDx=0;entryDy=0;edgeStyle=orthogonalEdgeStyle;strokeWidth=2;" edge="1" parent="1" source="LSHb6EYZrm_vwkN75SZw-19" target="LSHb6EYZrm_vwkN75SZw-47">
          <mxGeometry width="50" height="50" relative="1" as="geometry">
            <mxPoint x="820" y="310" as="sourcePoint" />
            <mxPoint x="870" y="260" as="targetPoint" />
          </mxGeometry>
        </mxCell>
        <mxCell id="LSHb6EYZrm_vwkN75SZw-76" value="" style="endArrow=classic;html=1;rounded=0;exitX=1;exitY=0.5;exitDx=0;exitDy=0;entryX=0;entryY=0.5;entryDx=0;entryDy=0;edgeStyle=orthogonalEdgeStyle;strokeWidth=2;" edge="1" parent="1" source="LSHb6EYZrm_vwkN75SZw-19" target="LSHb6EYZrm_vwkN75SZw-63">
          <mxGeometry width="50" height="50" relative="1" as="geometry">
            <mxPoint x="820" y="310" as="sourcePoint" />
            <mxPoint x="870" y="260" as="targetPoint" />
          </mxGeometry>
        </mxCell>
        <mxCell id="LSHb6EYZrm_vwkN75SZw-79" style="edgeStyle=orthogonalEdgeStyle;rounded=0;orthogonalLoop=1;jettySize=auto;html=1;exitX=0.5;exitY=1;exitDx=0;exitDy=0;entryX=0.5;entryY=0;entryDx=0;entryDy=0;strokeWidth=3;" edge="1" parent="1" source="LSHb6EYZrm_vwkN75SZw-77" target="LSHb6EYZrm_vwkN75SZw-70">
          <mxGeometry relative="1" as="geometry" />
        </mxCell>
        <mxCell id="LSHb6EYZrm_vwkN75SZw-77" value="&lt;font style=&quot;font-size: 16px;&quot;&gt;$$a_t=\{a_t^0,...,a_t^{n-1}\}$$&lt;/font&gt;" style="text;html=1;strokeColor=none;fillColor=none;align=center;verticalAlign=middle;whiteSpace=wrap;rounded=0;" vertex="1" parent="1">
          <mxGeometry x="841" y="490" width="60" height="30" as="geometry" />
        </mxCell>
        <mxCell id="LSHb6EYZrm_vwkN75SZw-85" style="edgeStyle=orthogonalEdgeStyle;rounded=0;orthogonalLoop=1;jettySize=auto;html=1;exitX=0;exitY=0.5;exitDx=0;exitDy=0;entryX=0.5;entryY=1;entryDx=0;entryDy=0;strokeWidth=3;" edge="1" parent="1" source="LSHb6EYZrm_vwkN75SZw-81" target="LSHb6EYZrm_vwkN75SZw-4">
          <mxGeometry relative="1" as="geometry" />
        </mxCell>
        <mxCell id="LSHb6EYZrm_vwkN75SZw-81" value="&lt;font style=&quot;font-size: 16px;&quot;&gt;$$\{s_t,a_t,&lt;br&gt;r_t,s_{t+1}\}$$&lt;/font&gt;" style="text;html=1;strokeColor=none;fillColor=none;align=center;verticalAlign=middle;whiteSpace=wrap;rounded=0;" vertex="1" parent="1">
          <mxGeometry x="325" y="575" width="155" height="30" as="geometry" />
        </mxCell>
      </root>
    </mxGraphModel>
  </diagram>
</mxfile>
